<svg width="32" height="32" viewBox="0 0 32 32" fill="none" xmlns="http://www.w3.org/2000/svg">
<rect width="32" height="32" rx="16" fill="#FFA800" fill-opacity="0.2"/>
<path fill-rule="evenodd" clip-rule="evenodd" d="M23.761 16.001C23.761 16.8145 24.429 17.4764 25.25 17.4764C25.664 17.4764 26 17.8093 26 18.2195V20.8958C26 23.159 24.142 25 21.858 25H10.143C7.859 25 6 23.159 6 20.8958V18.2195C6 17.8093 6.336 17.4764 6.75 17.4764C7.572 17.4764 8.24 16.8145 8.24 16.001C8.24 15.2083 7.599 14.6118 6.75 14.6118C6.551 14.6118 6.361 14.5335 6.22 14.3938C6.079 14.2541 6 14.0648 6 13.8687L6.002 11.1051C6.002 8.84201 7.86 7 10.144 7H21.856C24.14 7 25.999 8.84201 25.999 11.1051L26 13.7825C26 13.9786 25.921 14.1689 25.781 14.3076C25.64 14.4473 25.45 14.5256 25.25 14.5256C24.429 14.5256 23.761 15.1875 23.761 16.001ZM12.045 16.5438C12.3713 16.7608 12.746 16.8693 13.1693 16.8693C13.575 16.8693 13.9365 16.7608 14.254 16.5438C14.5802 16.3268 14.8404 16.0348 15.0344 15.6676C15.2284 15.3004 15.3254 14.8915 15.3254 14.4409C15.3254 13.9819 15.2328 13.5688 15.0476 13.2017C14.8713 12.8345 14.6199 12.5424 14.2937 12.3255C13.9762 12.1085 13.6014 12 13.1693 12C12.746 12 12.3713 12.1085 12.045 12.3255C11.7187 12.5424 11.463 12.8345 11.2778 13.2017C11.0926 13.5688 11 13.9819 11 14.4409C11 14.8915 11.0926 15.3004 11.2778 15.6676C11.463 16.0348 11.7187 16.3268 12.045 16.5438ZM13.7778 15.3797C13.6367 15.63 13.4339 15.7552 13.1693 15.7552C12.8959 15.7552 12.6843 15.63 12.5344 15.3797C12.3933 15.1293 12.3228 14.8164 12.3228 14.4409C12.3228 14.0654 12.3977 13.7524 12.5476 13.5021C12.6975 13.2517 12.9048 13.1266 13.1693 13.1266C13.4427 13.1266 13.6499 13.2517 13.791 13.5021C13.9321 13.7524 14.0026 14.0654 14.0026 14.4409C14.0026 14.8164 13.9277 15.1293 13.7778 15.3797ZM17.746 20.6745C18.0723 20.8915 18.4383 21 18.8439 21C19.2496 21 19.6111 20.8915 19.9286 20.6745C20.2549 20.4576 20.515 20.1655 20.709 19.7983C20.903 19.4312 21 19.0223 21 18.5716C21 18.1127 20.9074 17.6996 20.7222 17.3324C20.5459 16.9652 20.2945 16.6732 19.9683 16.4562C19.6508 16.2392 19.276 16.1307 18.8439 16.1307C18.4206 16.1307 18.0459 16.2392 17.7196 16.4562C17.3933 16.6732 17.1376 16.9652 16.9524 17.3324C16.7672 17.6996 16.6746 18.1127 16.6746 18.5716C16.6746 19.0223 16.7716 19.4312 16.9656 19.7983C17.1596 20.1655 17.4198 20.4576 17.746 20.6745ZM19.4524 19.5104C19.3113 19.7608 19.1085 19.886 18.8439 19.886C18.5705 19.886 18.3589 19.7608 18.209 19.5104C18.0679 19.2601 17.9974 18.9471 17.9974 18.5716C17.9974 18.1961 18.0723 17.8832 18.2222 17.6328C18.3721 17.3825 18.5794 17.2573 18.8439 17.2573C19.1173 17.2573 19.3245 17.3825 19.4656 17.6328C19.6067 17.8832 19.6772 18.1961 19.6772 18.5716C19.6772 18.9471 19.6023 19.2601 19.4524 19.5104ZM12.8783 20.7371C13.037 20.8456 13.1869 20.8999 13.328 20.8999C13.5309 20.8999 13.7116 20.7997 13.8704 20.5994L19.1349 13.0765C19.2231 12.9346 19.2672 12.8095 19.2672 12.701C19.2672 12.509 19.1878 12.3588 19.0291 12.2503C18.8792 12.1419 18.7293 12.0876 18.5794 12.0876C18.3765 12.0876 18.1958 12.1878 18.037 12.388L12.7725 19.911C12.6843 20.0529 12.6402 20.178 12.6402 20.2865C12.6402 20.4701 12.7196 20.6203 12.8783 20.7371Z" fill="url(#paint0_linear_323_5097)"/>
<defs>
<linearGradient id="paint0_linear_323_5097" x1="7.75879" y1="10.15" x2="24.3908" y2="14.1125" gradientUnits="userSpaceOnUse">
<stop stop-color="#FFB628"/>
<stop offset="1" stop-color="#EE4700"/>
</linearGradient>
</defs>
</svg>
