<svg width="32" height="32" viewBox="0 0 32 32" fill="none" xmlns="http://www.w3.org/2000/svg">
<rect width="32" height="32" rx="16" fill="#17C7FF" fill-opacity="0.12"/>
<path d="M25.4354 6.58198C24.9352 6.0686 24.1949 5.87734 23.5046 6.07866L7.408 10.7595C6.6797 10.9619 6.16349 11.5427 6.02443 12.2806C5.88237 13.0315 6.37858 13.9848 7.02684 14.3834L12.0599 17.4768C12.5761 17.7939 13.2424 17.7144 13.6696 17.2835L19.4329 11.4843C19.723 11.1823 20.2032 11.1823 20.4934 11.4843C20.7835 11.7762 20.7835 12.2493 20.4934 12.5513L14.72 18.3516C14.2918 18.7814 14.2118 19.4508 14.5269 19.9702L17.6022 25.0538C17.9623 25.6577 18.5826 26 19.2628 26C19.3429 26 19.4329 26 19.513 25.9899C20.2933 25.8893 20.9135 25.3558 21.1436 24.6008L25.9156 8.52479C26.1257 7.84028 25.9356 7.09537 25.4354 6.58198Z" fill="url(#paint0_linear_323_10658)"/>
<defs>
<linearGradient id="paint0_linear_323_10658" x1="6" y1="12.1" x2="26.4604" y2="13.9174" gradientUnits="userSpaceOnUse">
<stop stop-color="#00BAFF"/>
<stop offset="1" stop-color="#063EF9"/>
</linearGradient>
</defs>
</svg>
