<svg width="32" height="32" viewBox="0 0 32 32" fill="none" xmlns="http://www.w3.org/2000/svg">
<rect width="32" height="32" rx="16" fill="#FFECDA"/>
<g clip-path="url(#clip0_323_11017)">
<path d="M24.6201 12.45C23.5701 7.83 19.5401 5.75 16.0001 5.75C16.0001 5.75 16.0001 5.75 15.9901 5.75C12.4601 5.75 8.4201 7.82 7.3701 12.44C6.2001 17.6 9.3601 21.97 12.2201 24.72C13.2801 25.74 14.6401 26.25 16.0001 26.25C17.3601 26.25 18.7201 25.74 19.7701 24.72C22.6301 21.97 25.7901 17.61 24.6201 12.45ZM16.0001 17.46C14.2601 17.46 12.8501 16.05 12.8501 14.31C12.8501 12.57 14.2601 11.16 16.0001 11.16C17.7401 11.16 19.1501 12.57 19.1501 14.31C19.1501 16.05 17.7401 17.46 16.0001 17.46Z" fill="url(#paint0_linear_323_11017)"/>
</g>
<defs>
<linearGradient id="paint0_linear_323_11017" x1="7.12012" y1="26.25" x2="25.3559" y2="25.8083" gradientUnits="userSpaceOnUse">
<stop stop-color="#FC987E"/>
<stop offset="1" stop-color="#FDC47F"/>
</linearGradient>
<clipPath id="clip0_323_11017">
<rect width="24" height="24" fill="white" transform="translate(4 4)"/>
</clipPath>
</defs>
</svg>
