<svg width="32" height="32" viewBox="0 0 32 32" fill="none" xmlns="http://www.w3.org/2000/svg">
<rect width="32" height="32" rx="16" fill="#00FFA3" fill-opacity="0.12"/>
<path fill-rule="evenodd" clip-rule="evenodd" d="M12.9257 20.39H18.3119C18.7178 20.39 19.0545 20.05 19.0545 19.64C19.0545 19.23 18.7178 18.9 18.3119 18.9H12.9257C12.5198 18.9 12.1832 19.23 12.1832 19.64C12.1832 20.05 12.5198 20.39 12.9257 20.39ZM16.2723 13.9H12.9257C12.5198 13.9 12.1832 14.24 12.1832 14.65C12.1832 15.06 12.5198 15.39 12.9257 15.39H16.2723C16.6782 15.39 17.0149 15.06 17.0149 14.65C17.0149 14.24 16.6782 13.9 16.2723 13.9ZM23.3381 13.0256C23.5708 13.0229 23.8242 13.02 24.0545 13.02C24.302 13.02 24.5 13.22 24.5 13.47V21.51C24.5 23.99 22.5099 26 20.0545 26H12.1733C9.59901 26 7.5 23.89 7.5 21.29V10.51C7.5 8.03 9.5 6 11.9653 6H17.2525C17.5099 6 17.7079 6.21 17.7079 6.46V9.68C17.7079 11.51 19.203 13.01 21.0149 13.02C21.4381 13.02 21.8112 13.0232 22.1377 13.0259C22.3917 13.0281 22.6175 13.03 22.8168 13.03C22.9578 13.03 23.1405 13.0279 23.3381 13.0256ZM23.6111 11.566C22.7972 11.569 21.8378 11.566 21.1477 11.559C20.0527 11.559 19.1507 10.648 19.1507 9.542V6.906C19.1507 6.475 19.6685 6.261 19.9646 6.572C20.5004 7.13476 21.2368 7.90834 21.9699 8.67837C22.7009 9.44632 23.4286 10.2107 23.9507 10.759C24.2398 11.062 24.0279 11.565 23.6111 11.566Z" fill="url(#paint0_linear_323_4069)"/>
<defs>
<linearGradient id="paint0_linear_323_4069" x1="7.5" y1="12.1" x2="24.9292" y2="13.416" gradientUnits="userSpaceOnUse">
<stop stop-color="#66FFDD"/>
<stop offset="1" stop-color="#009999"/>
</linearGradient>
</defs>
</svg>
