<svg width="32" height="32" viewBox="0 0 32 32" fill="none" xmlns="http://www.w3.org/2000/svg">
<rect width="32" height="32" rx="16" fill="#F44336" fill-opacity="0.14"/>
<path d="M21.71 6.79065C21.111 6.58965 20.481 6.50065 19.85 6.50065C18.46 6.49065 17.111 6.95065 16 7.79965C15.91 7.73065 15.8 7.66965 15.7 7.61065C15.6 7.54965 15.42 7.40065 15.27 7.32065L14.89 7.15065C14.69 7.04065 14.481 6.96065 14.26 6.88965C14.24 6.87065 14.21 6.84965 14.17 6.83065H14.111C13.52 6.62965 12.91 6.51965 12.28 6.50065H12.17C11.89 6.50065 11.611 6.51965 11.33 6.56065H11.21C10.91 6.59965 10.611 6.66965 10.321 6.76965C6.59002 7.99065 5.26002 12.0406 6.39002 15.5806C7.03002 17.3896 8.06102 19.0306 9.40102 20.3796C11.35 22.2596 13.481 23.9196 15.77 25.3396L16.03 25.5006L16.28 25.3496C18.561 23.9196 20.68 22.2596 22.611 20.3896C23.96 19.0406 24.99 17.3896 25.62 15.5806C26.731 12.0406 25.401 7.99065 21.71 6.79065Z" fill="url(#paint0_linear_323_6512)"/>
<defs>
<linearGradient id="paint0_linear_323_6512" x1="6" y1="6.50049" x2="28.2526" y2="10.8137" gradientUnits="userSpaceOnUse">
<stop stop-color="#FF65AC"/>
<stop offset="1" stop-color="#D9297A"/>
</linearGradient>
</defs>
</svg>
