<svg width="32" height="32" viewBox="0 0 32 32" fill="none" xmlns="http://www.w3.org/2000/svg">
<rect width="32" height="32" rx="16" fill="#FF6766" fill-opacity="0.13"/>
<path fill-rule="evenodd" clip-rule="evenodd" d="M24.2871 9.24297C24.6761 9.24297 25 9.56596 25 9.97696V10.357C25 10.758 24.6761 11.0909 24.2871 11.0909H7.71385C7.32386 11.0909 7 10.758 7 10.357V9.97696C7 9.56596 7.32386 9.24297 7.71385 9.24297H10.6296C11.2218 9.24297 11.7373 8.82197 11.8705 8.22798L12.0232 7.54598C12.2605 6.61699 13.0415 6 13.9353 6H18.0647C18.9488 6 19.7385 6.61699 19.967 7.49699L20.1304 8.22698C20.2627 8.82197 20.7781 9.24297 21.3714 9.24297H24.2871ZM22.8058 23.134C23.1102 20.2971 23.6432 13.5571 23.6432 13.4891C23.6626 13.2831 23.5955 13.0881 23.4623 12.9311C23.3193 12.7841 23.1384 12.6971 22.9391 12.6971H9.06852C8.86818 12.6971 8.67756 12.7841 8.54529 12.9311C8.41108 13.0881 8.34494 13.2831 8.35467 13.4891C8.35646 13.5016 8.37558 13.739 8.40755 14.1359C8.54958 15.8992 8.94517 20.8102 9.20079 23.134C9.38168 24.846 10.505 25.922 12.1321 25.961C13.3876 25.99 14.6811 26 16.0038 26C17.2496 26 18.5149 25.99 19.8094 25.961C21.4929 25.932 22.6152 24.875 22.8058 23.134Z" fill="url(#paint0_linear_323_7009)"/>
<defs>
<linearGradient id="paint0_linear_323_7009" x1="7" y1="12.1" x2="25.4417" y2="13.5743" gradientUnits="userSpaceOnUse">
<stop stop-color="#FE7B59"/>
<stop offset="0.479167" stop-color="#FE497A"/>
<stop offset="1" stop-color="#FD169C"/>
</linearGradient>
</defs>
</svg>
