<svg width="32" height="32" viewBox="0 0 32 32" fill="none" xmlns="http://www.w3.org/2000/svg">
<rect width="32" height="32" rx="16" fill="#2AAD09" fill-opacity="0.24"/>
<path d="M22.75 12V14.1C22.31 14.04 21.81 14.01 21.25 14V12C21.25 8.85 20.36 6.75 16 6.75C11.64 6.75 10.75 8.85 10.75 12V14C10.19 14.01 9.69 14.04 9.25 14.1V12C9.25 9.1 9.95 5.25 16 5.25C22.05 5.25 22.75 9.1 22.75 12Z" fill="url(#paint0_linear_323_863)"/>
<path d="M22.75 14.1C22.31 14.04 21.81 14.01 21.25 14H10.75C10.19 14.01 9.69 14.04 9.25 14.1C6.7 14.41 6 15.66 6 19V21C6 25 7 26 11 26H21C25 26 26 25 26 21V19C26 15.66 25.3 14.41 22.75 14.1ZM12.71 20.71C12.52 20.89 12.26 21 12 21C11.87 21 11.74 20.97 11.62 20.92C11.49 20.87 11.39 20.8 11.29 20.71C11.11 20.52 11 20.26 11 20C11 19.87 11.03 19.74 11.08 19.62C11.13 19.5 11.2 19.39 11.29 19.29C11.39 19.2 11.49 19.13 11.62 19.08C11.99 18.92 12.43 19.01 12.71 19.29C12.8 19.39 12.87 19.5 12.92 19.62C12.97 19.74 13 19.87 13 20C13 20.26 12.89 20.52 12.71 20.71ZM16.92 20.38C16.87 20.5 16.8 20.61 16.71 20.71C16.52 20.89 16.26 21 16 21C15.73 21 15.48 20.89 15.29 20.71C15.2 20.61 15.13 20.5 15.08 20.38C15.03 20.26 15 20.13 15 20C15 19.73 15.11 19.48 15.29 19.29C15.66 18.92 16.33 18.92 16.71 19.29C16.89 19.48 17 19.73 17 20C17 20.13 16.97 20.26 16.92 20.38ZM20.71 20.71C20.52 20.89 20.26 21 20 21C19.74 21 19.48 20.89 19.29 20.71C19.11 20.52 19 20.27 19 20C19 19.73 19.11 19.48 19.29 19.29C19.67 18.92 20.34 18.92 20.71 19.29C20.75 19.34 20.79 19.39 20.83 19.45C20.87 19.5 20.9 19.56 20.92 19.62C20.95 19.68 20.97 19.74 20.98 19.8C20.99 19.87 21 19.94 21 20C21 20.26 20.89 20.52 20.71 20.71Z" fill="url(#paint1_linear_323_863)"/>
<defs>
<linearGradient id="paint0_linear_323_863" x1="9.25" y1="7.94925" x2="22.9188" y2="9.80136" gradientUnits="userSpaceOnUse">
<stop stop-color="#99FE67"/>
<stop offset="1" stop-color="#00994D"/>
</linearGradient>
<linearGradient id="paint1_linear_323_863" x1="6" y1="17.66" x2="26.1795" y2="20.6475" gradientUnits="userSpaceOnUse">
<stop stop-color="#99FE67"/>
<stop offset="1" stop-color="#00994D"/>
</linearGradient>
</defs>
</svg>
