<svg width="32" height="32" viewBox="0 0 32 32" fill="none" xmlns="http://www.w3.org/2000/svg">
<rect width="32" height="32" rx="16" fill="#D6A1FE" fill-opacity="0.17"/>
<path fill-rule="evenodd" clip-rule="evenodd" d="M21.0105 18.6013C21.4245 18.6013 21.7605 18.2653 21.7605 17.8513V15.9993C21.7605 15.5853 21.4245 15.2493 21.0105 15.2493H15.3185C14.9945 14.1823 14.0125 13.3983 12.8405 13.3983C11.4065 13.3983 10.2395 14.5653 10.2395 15.9993C10.2395 17.4343 11.4065 18.6013 12.8405 18.6013C14.0125 18.6013 14.9945 17.8173 15.3185 16.7493H17.4305V17.8513C17.4305 18.2653 17.7665 18.6013 18.1805 18.6013C18.5945 18.6013 18.9305 18.2653 18.9305 17.8513V16.7493H20.2605V17.8513C20.2605 18.2653 20.5965 18.6013 21.0105 18.6013ZM11.6655 5.99927H20.3345C23.7225 5.99927 25.9995 8.37727 25.9995 11.9163V20.0833C25.9995 23.6223 23.7225 25.9993 20.3335 25.9993H11.6655C8.27651 25.9993 5.99951 23.6223 5.99951 20.0833V11.9163C5.99951 8.37727 8.27651 5.99927 11.6655 5.99927ZM11.7386 16.0002C11.7386 15.3922 12.2336 14.8982 12.8406 14.8982C13.4476 14.8982 13.9426 15.3922 13.9426 16.0002C13.9426 16.6072 13.4476 17.1012 12.8406 17.1012C12.2336 17.1012 11.7386 16.6072 11.7386 16.0002Z" fill="url(#paint0_linear_323_261)"/>
<defs>
<linearGradient id="paint0_linear_323_261" x1="5.99951" y1="12.0993" x2="26.4599" y2="13.9167" gradientUnits="userSpaceOnUse">
<stop stop-color="#E6B2FD"/>
<stop offset="1" stop-color="#9559FF"/>
</linearGradient>
</defs>
</svg>
