<svg width="61" height="40" viewBox="0 0 61 40" fill="none" xmlns="http://www.w3.org/2000/svg">
<g clip-path="url(#clip0_9_12980)">
<path d="M24.0991 4.14307V12.0643L21.4078 14.9154C20.7686 15.5928 19.8573 15.8743 18.9934 15.7467C18.977 15.7439 18.9615 15.742 18.945 15.7392C18.9411 15.7392 18.9373 15.7382 18.9334 15.7373C18.8995 15.7317 18.8646 15.7251 18.8307 15.7176C18.4976 15.651 18.1731 15.5215 17.8719 15.3254L6.17682 7.71104V27.7603C6.17682 29.2483 4.95074 30.4548 3.43704 30.4548C1.92334 30.4548 0.697266 29.2483 0.697266 27.7603V2.6945C0.697266 2.66917 0.697266 2.64478 0.698234 2.61944C0.698234 2.5988 0.699203 2.5791 0.700171 2.55846C0.700171 2.55565 0.700171 2.55189 0.700171 2.54814C0.701139 2.5275 0.702108 2.5078 0.704045 2.48716C0.705013 2.46933 0.70695 2.45151 0.708887 2.43368C0.712761 2.38959 0.718572 2.34549 0.725351 2.3014C0.727288 2.28826 0.729225 2.27513 0.73213 2.26199C0.736973 2.23009 0.742783 2.19819 0.749562 2.1663C0.752468 2.15035 0.756342 2.1344 0.759247 2.11845C0.763121 2.10344 0.766026 2.08843 0.7699 2.07248C0.7699 2.0706 0.770869 2.06778 0.771837 2.06591C0.791206 1.98898 0.813481 1.91204 0.838661 1.83605C0.844472 1.8201 0.849314 1.80509 0.855125 1.78914C0.860935 1.77413 0.866746 1.75818 0.872557 1.74317C0.878368 1.72816 0.884179 1.71315 0.890958 1.6972C0.934538 1.59024 0.985867 1.48423 1.04397 1.38103C1.07787 1.32286 1.1137 1.26469 1.15244 1.20652C1.20183 1.13334 1.25413 1.06298 1.30933 0.996364C1.34613 0.951331 1.3839 0.908174 1.42361 0.866893C1.44298 0.846253 1.46235 0.825613 1.48269 0.805911H1.48366C1.50399 0.784332 1.52433 0.765568 1.54467 0.745866L1.62215 0.675501C1.63474 0.664243 1.64829 0.652985 1.66088 0.642664L1.67928 0.627653C1.69575 0.614519 1.71221 0.601384 1.72868 0.588249L1.80518 0.530081C1.82843 0.513193 1.8507 0.497244 1.87395 0.482233C1.89719 0.466284 1.92043 0.451272 1.94367 0.436261C2.3911 0.149173 2.91213 0 3.43995 0C3.47287 0 3.50483 0 3.53776 0.00187639C3.57069 0.00281459 3.60265 0.00469098 3.63557 0.00656737C3.65204 0.00750557 3.6685 0.00938196 3.68497 0.0103202C3.70143 0.0121966 3.71693 0.0131347 3.73339 0.0150111C3.74985 0.0168875 3.76535 0.0187639 3.78181 0.0206403C3.79828 0.0225167 3.81377 0.0243931 3.83024 0.0272077C3.99197 0.0497244 4.1537 0.0872523 4.31156 0.139791C4.53237 0.212971 4.74737 0.315234 4.95171 0.448458L4.98755 0.471913L18.9711 9.57805L24.1011 4.14307H24.0991ZM57.9585 0H32.1548C30.7321 0 29.5797 1.11645 29.5797 2.49466V28.1177C29.5797 29.4078 30.6585 30.4539 31.9911 30.4539H45.9873C47.5001 30.4539 48.7271 29.2661 48.7271 27.7997V25.1455H35.0592V5.30831H57.9585C59.4712 5.30831 60.6982 4.12056 60.6982 2.65416C60.6982 1.18776 59.4722 0 57.9585 0ZM60.6953 14.6481H45.2755C44.5191 14.6481 43.8344 14.9455 43.3386 15.4258C42.8602 15.8893 42.558 16.5226 42.5377 17.2253C42.4931 18.7273 43.7695 19.9573 45.321 19.9573H55.2158C55.2158 19.9573 55.2187 19.9583 55.2187 19.9601V27.9939C55.2671 28.6506 55.5615 29.2408 56.0138 29.6789C56.4922 30.1424 57.1459 30.4351 57.8713 30.4548C57.8974 30.4548 57.9236 30.4557 57.9497 30.4557C59.4644 30.4557 60.6905 29.2351 60.6905 27.7584V18.1729C60.6905 18.1729 60.6915 18.17 60.6934 18.17H60.6982V14.6518C60.6982 14.6518 60.6973 14.649 60.6953 14.649V14.6481ZM5.39624 34.232H6.18456V39.9353H5.33716V35.4976L3.52711 37.7024H3.37119L1.53983 35.4976V39.9353H0.697266V34.232H1.49528L3.45157 36.5746L5.39624 34.232ZM18.6206 34.232H19.6433L17.4691 36.918V39.9353H16.6052V36.918L14.431 34.232H15.4489L17.0245 36.1984L18.6215 34.232H18.6206ZM31.5573 37.1263H33.5339V39.5431C32.8095 39.848 32.0899 40 31.3762 40C30.4009 40 29.6223 39.7242 29.0393 39.1735C28.4562 38.6227 28.1647 37.9425 28.1647 37.1338C28.1647 36.2819 28.4669 35.5727 29.0712 35.0069C29.6755 34.4412 30.4319 34.1579 31.3423 34.1579C31.6735 34.1579 31.9882 34.1926 32.2865 34.262C32.5838 34.3314 32.9606 34.459 33.4157 34.6438V35.477C32.7136 35.082 32.0163 34.885 31.3258 34.885C30.6827 34.885 30.1404 35.097 29.6988 35.522C29.2581 35.947 29.0373 36.4677 29.0373 37.086C29.0373 37.7042 29.2581 38.2634 29.6988 38.6743C30.1394 39.0853 30.707 39.2907 31.4013 39.2907C31.7384 39.2907 32.1412 39.2157 32.6109 39.0665L32.6913 39.0421V37.8543H31.5573V37.1272V37.1263ZM46.1171 34.232H46.9645V37.4697C46.9645 37.9078 46.9316 38.239 46.8657 38.4614C46.7999 38.6847 46.7185 38.8704 46.6217 39.0187C46.5248 39.1669 46.4057 39.3001 46.2653 39.4164C45.7985 39.8058 45.1893 40 44.4368 40C43.6843 40 43.0548 39.8067 42.5909 39.4202C42.4505 39.3001 42.3314 39.1669 42.2345 39.0177C42.1377 38.8695 42.0573 38.6875 41.9944 38.4726C41.9314 38.2578 41.8994 37.92 41.8994 37.4603V34.231H42.7469V37.4687C42.7469 38.0054 42.8098 38.3779 42.9367 38.5871C43.0635 38.7963 43.2553 38.9652 43.5139 39.0909C43.7724 39.2175 44.0775 39.2804 44.4281 39.2804C44.9278 39.2804 45.3355 39.1537 45.6503 38.9004C45.8159 38.7644 45.935 38.604 46.0086 38.4191C46.0813 38.2343 46.1181 37.9172 46.1181 37.4678V34.2301L46.1171 34.232ZM59.8508 34.232H60.6982V37.4697C60.6982 37.9078 60.6653 38.239 60.5995 38.4614C60.5336 38.6847 60.4522 38.8704 60.3554 39.0187C60.2586 39.1669 60.1394 39.3001 59.999 39.4164C59.5322 39.8058 58.923 40 58.1706 40C57.4181 40 56.7886 39.8067 56.3247 39.4202C56.1842 39.3001 56.0651 39.1669 55.9683 39.0177C55.8714 38.8695 55.791 38.6875 55.7281 38.4726C55.6651 38.2578 55.6332 37.92 55.6332 37.4603V34.231H56.4806V37.4687C56.4806 38.0054 56.5435 38.3779 56.6704 38.5871C56.7973 38.7963 56.989 38.9652 57.2476 39.0909C57.5062 39.2175 57.8113 39.2804 58.1618 39.2804C58.6616 39.2804 59.0693 39.1537 59.384 38.9004C59.5496 38.7644 59.6688 38.604 59.7424 38.4191C59.815 38.2343 59.8518 37.9172 59.8518 37.4678V34.2301L59.8508 34.232Z" fill="url(#paint0_linear_9_12980)"/>
</g>
<defs>
<linearGradient id="paint0_linear_9_12980" x1="0.697265" y1="40" x2="60.3993" y2="-0.441351" gradientUnits="userSpaceOnUse">
<stop stop-color="#9A8DE9"/>
<stop offset="1" stop-color="#F6CCD5"/>
</linearGradient>
<clipPath id="clip0_9_12980">
<rect width="60" height="40" fill="white" transform="translate(0.697266)"/>
</clipPath>
</defs>
</svg>
